<svg width="41" height="40" viewBox="0 0 41 40" fill="none" xmlns="http://www.w3.org/2000/svg">
<path d="M32.9917 24.8096C32.9917 24.8234 32.9712 24.8367 32.9709 24.8505C32.9713 24.8777 32.9541 24.9047 32.9541 24.932C32.9541 27.6132 30.7805 29.7868 28.0994 29.7868C25.4182 29.7868 23.2446 27.6133 23.2446 24.932C23.2446 22.2509 25.418 20.0773 28.0992 20.0773C28.8133 20.0773 29.476 20.2327 30.101 20.5095V10.2733L16.5073 17.7856V34.5001C16.5073 34.5604 16.4941 34.6162 16.4867 34.6698C16.3971 37.2723 14.2523 39.3548 11.628 39.3548C8.94679 39.3548 6.77015 37.1813 6.77015 34.5001C6.77015 31.8188 8.93758 29.6453 11.6188 29.6453C12.336 29.6453 12.9916 29.802 13.6166 30.0812V10.9162C13.6166 10.397 13.9155 9.91851 14.3703 9.66742L30.8477 0.580075C31.2898 0.33609 31.8366 0.344137 32.2717 0.600622C32.7064 0.857106 32.9916 1.32429 32.9916 1.82898L32.9917 24.8096Z" fill="#00B1FF"/>
</svg>
