<svg width="40" height="40" viewBox="0 0 40 40" fill="none" xmlns="http://www.w3.org/2000/svg">
<path d="M8.75 18.75H33.75C34.0815 18.75 34.3995 18.8817 34.6339 19.1161C34.8683 19.3505 35 19.6685 35 20C35 20.3315 34.8683 20.6495 34.6339 20.8839C34.3995 21.1183 34.0815 21.25 33.75 21.25H8.75C8.41848 21.25 8.10054 21.1183 7.86612 20.8839C7.6317 20.6495 7.5 20.3315 7.5 20C7.5 19.6685 7.6317 19.3505 7.86612 19.1161C8.10054 18.8817 8.41848 18.75 8.75 18.75Z" fill="black"/>
<path d="M9.26748 20L19.635 30.365C19.8697 30.5997 20.0016 30.9181 20.0016 31.25C20.0016 31.5819 19.8697 31.9003 19.635 32.135C19.4003 32.3697 19.0819 32.5016 18.75 32.5016C18.418 32.5016 18.0997 32.3697 17.865 32.135L6.61498 20.885C6.49857 20.7689 6.40621 20.6309 6.34319 20.4791C6.28018 20.3272 6.24774 20.1644 6.24774 20C6.24774 19.8356 6.28018 19.6728 6.34319 19.5209C6.40621 19.369 6.49857 19.2311 6.61498 19.115L17.865 7.86499C18.0997 7.63028 18.418 7.49841 18.75 7.49841C19.0819 7.49841 19.4003 7.63028 19.635 7.86499C19.8697 8.09971 20.0016 8.41805 20.0016 8.74999C20.0016 9.08193 19.8697 9.40028 19.635 9.63499L9.26748 20Z" fill="black"/>
</svg>
