<svg width="27" height="40" viewBox="0 0 27 40" fill="none" xmlns="http://www.w3.org/2000/svg">
<path d="M26.9917 34.0545C26.9917 34.1231 26.9881 34.1901 26.9787 34.2562C26.9882 34.3803 26.9974 34.5053 26.9974 34.6319C26.9974 37.3224 24.8141 39.5035 22.1236 39.5035C19.4331 39.5035 17.2475 37.3224 17.2475 34.6319C17.2475 31.9413 19.4196 29.7602 22.1102 29.7602C22.8267 29.7602 23.5543 29.9162 24.1012 30.1941V17.7176L10.5074 10.1791V24.7659C10.5074 24.8185 10.4914 24.8703 10.4859 24.9215C10.4681 27.5969 8.28179 29.7603 5.60226 29.7603C2.91171 29.7603 0.730309 27.5792 0.730309 24.8887C0.730309 22.1981 2.9107 20.017 5.60125 20.017C6.32093 20.017 6.99179 20.1743 7.61679 20.4545V1.70539C7.61682 1.45645 7.68178 1.21183 7.80525 0.995668C7.92873 0.779509 8.10644 0.599292 8.32086 0.472812C8.53533 0.346258 8.77908 0.277797 9.02808 0.27418C9.27708 0.270563 9.52272 0.331916 9.74078 0.452187L26.2563 9.57102C26.7127 9.82297 26.9918 10.3031 26.9918 10.8242V34.0545H26.9917Z" fill="#00B1FF"/>
</svg>
