<svg width="41" height="40" viewBox="0 0 41 40" fill="none" xmlns="http://www.w3.org/2000/svg">
<path d="M32.9917 34.0545C32.9917 34.1231 32.9881 34.1901 32.9787 34.2562C32.9882 34.3803 32.9974 34.5053 32.9974 34.6319C32.9974 37.3224 30.8141 39.5035 28.1236 39.5035C25.4331 39.5035 23.2475 37.3224 23.2475 34.6319C23.2475 31.9413 25.4196 29.7602 28.1102 29.7602C28.8267 29.7602 29.5543 29.9162 30.1012 30.1941V17.7176L16.5074 10.1791V24.7659C16.5074 24.8185 16.4914 24.8703 16.4859 24.9215C16.4681 27.5969 14.2818 29.7603 11.6023 29.7603C8.91171 29.7603 6.73031 27.5792 6.73031 24.8887C6.73031 22.1981 8.9107 20.017 11.6012 20.017C12.3209 20.017 12.9918 20.1743 13.6168 20.4545V1.70539C13.6168 1.45645 13.6818 1.21183 13.8053 0.995668C13.9287 0.779509 14.1064 0.599292 14.3209 0.472812C14.5353 0.346258 14.7791 0.277797 15.0281 0.27418C15.2771 0.270563 15.5227 0.331916 15.7408 0.452187L32.2563 9.57102C32.7127 9.82297 32.9918 10.3031 32.9918 10.8242V34.0545H32.9917Z" fill="#00B1FF"/>
</svg>
