<svg width="61" height="41" viewBox="0 0 61 41" fill="none" xmlns="http://www.w3.org/2000/svg">
<path d="M40.7047 1.60615L56.9833 17.1393C58.9877 19.0543 60.1132 21.6479 60.1132 24.3517C60.1132 27.0555 58.9877 29.6491 56.9833 31.564C55.6954 32.7953 54.0973 33.6914 52.3419 34.1666C50.5865 34.6417 48.7324 34.6802 46.9569 34.2781V34.6324C46.9577 35.3834 46.8031 36.1271 46.502 36.8212C46.2008 37.5153 45.759 38.146 45.2018 38.6774C44.6446 39.2089 43.9829 39.6305 43.2545 39.9183C42.5261 40.2061 41.7453 40.3545 40.9567 40.3549H34.6265L34.6295 38.2179L34.6145 37.7379C34.4929 35.8257 33.6424 34.0216 32.2227 32.6643C30.8029 31.3071 28.9117 30.4902 26.9042 30.367L26.3822 30.3498H23.3821L23.079 30.3698C22.5397 30.4405 22.0455 30.6946 21.6877 31.0854C21.33 31.4761 21.1329 31.977 21.1329 32.4954C21.1329 33.0138 21.33 33.5147 21.6877 33.9054C22.0455 34.2962 22.5397 34.5504 23.079 34.621L23.3851 34.641H26.3852L26.7662 34.661C27.6241 34.7455 28.4252 35.109 29.0345 35.6903C29.6438 36.2715 30.0241 37.0351 30.1113 37.8522L30.1323 38.2179L30.1293 40.3549H15.1288C14.3406 40.3541 13.5602 40.2055 12.8323 39.9175C12.1045 39.6294 11.4433 39.2077 10.8867 38.6763C10.33 38.1448 9.88876 37.5142 9.58813 36.8203C9.28749 36.1265 9.13336 35.383 9.13455 34.6324V27.4786C9.13455 26.9358 9.17055 26.3987 9.23655 25.873C8.13992 26.1034 7.00297 26.0965 5.9095 25.8529C4.81603 25.6093 3.79389 25.1351 2.9184 24.4654C2.04292 23.7956 1.3364 22.9473 0.850915 21.983C0.365425 21.0187 0.113336 19.9629 0.113223 18.8935C0.11163 16.9982 0.900529 15.1799 2.30645 13.8384C3.71238 12.4969 5.62023 11.742 7.61049 11.7397C9.24855 11.7407 10.8412 12.2523 12.1452 13.1964C13.4492 14.1405 14.3928 15.4651 14.8318 16.9679C17.1075 15.4227 19.834 14.5945 22.629 14.5995H33.4624C35.2715 14.5995 36.9996 14.9424 38.5776 15.5566C39.081 14.7505 39.6822 14.0035 40.3687 13.331L34.3925 7.63144C33.5545 6.83131 33.0839 5.7474 33.0839 4.61736C33.0839 3.48733 33.5545 2.40341 34.3925 1.60329C34.8066 1.20757 35.2987 0.893601 35.8406 0.679368C36.3824 0.465136 36.9634 0.354858 37.5501 0.354858C38.1368 0.354858 38.7177 0.465136 39.2595 0.679368C39.8014 0.893601 40.2935 1.20757 40.7077 1.60329L40.7047 1.60615Z" fill="black"/>
</svg>
