<svg width="58" height="41" viewBox="0 0 58 41" fill="none" xmlns="http://www.w3.org/2000/svg">
<path d="M38.7677 1.60615L54.2694 17.1393C56.1782 19.0543 57.25 21.6479 57.25 24.3517C57.25 27.0555 56.1782 29.6491 54.2694 31.564C53.043 32.7953 51.5212 33.6914 49.8495 34.1666C48.1779 34.6417 46.4123 34.6802 44.7215 34.2781V34.6324C44.7223 35.3834 44.5751 36.1271 44.2883 36.8212C44.0015 37.5153 43.5808 38.146 43.0502 38.6774C42.5195 39.2089 41.8894 39.6305 41.1958 39.9183C40.5022 40.2061 39.7586 40.3545 39.0076 40.3549H32.9795L32.9823 38.2179L32.9681 37.7379C32.8523 35.8257 32.0424 34.0216 30.6904 32.6643C29.3384 31.3071 27.5375 30.4902 25.6257 30.367L25.1286 30.3498H22.2717L21.9831 30.3698C21.4695 30.4405 20.9989 30.6946 20.6582 31.0854C20.3175 31.4761 20.1298 31.977 20.1298 32.4954C20.1298 33.0138 20.3175 33.5147 20.6582 33.9054C20.9989 34.2962 21.4695 34.5504 21.9831 34.621L22.2745 34.641H25.1315L25.4943 34.661C26.3113 34.7455 27.0741 35.109 27.6544 35.6903C28.2346 36.2715 28.5968 37.0351 28.6798 37.8522L28.6998 38.2179L28.6969 40.3549H14.4122C13.6616 40.3541 12.9185 40.2055 12.2254 39.9175C11.5322 39.6294 10.9026 39.2077 10.3726 38.6763C9.84247 38.1448 9.42227 37.5142 9.13598 36.8203C8.8497 36.1265 8.70292 35.383 8.70405 34.6324V27.4786C8.70405 26.9358 8.73833 26.3987 8.80118 25.873C7.75688 26.1034 6.67419 26.0965 5.6329 25.8529C4.59161 25.6093 3.61825 25.1351 2.78454 24.4654C1.95084 23.7956 1.27803 22.9473 0.815712 21.983C0.35339 21.0187 0.11333 19.9629 0.113223 18.8935C0.111706 16.9982 0.862958 15.1799 2.20179 13.8384C3.54063 12.4969 5.35743 11.742 7.25272 11.7397C8.81261 11.7407 10.3293 12.2523 11.571 13.1964C12.8128 14.1405 13.7113 15.4651 14.1294 16.9679C16.2965 15.4227 18.893 14.5945 21.5546 14.5995H31.871C33.5937 14.5995 35.2393 14.9424 36.7421 15.5566C37.2215 14.7505 37.7939 14.0035 38.4477 13.331L32.7566 7.63144C31.9587 6.83131 31.5105 5.7474 31.5105 4.61736C31.5105 3.48733 31.9587 2.40341 32.7566 1.60329C33.1511 1.20757 33.6197 0.893601 34.1357 0.679368C34.6517 0.465136 35.2049 0.354858 35.7636 0.354858C36.3223 0.354858 36.8755 0.465136 37.3915 0.679368C37.9075 0.893601 38.3761 1.20757 38.7705 1.60329L38.7677 1.60615Z" fill="black"/>
</svg>
