<svg width="100" height="100" viewBox="0 0 100 100" fill="none" xmlns="http://www.w3.org/2000/svg">
<path d="M84.375 18.75V81.25C84.375 82.9076 83.7165 84.4973 82.5444 85.6694C81.3723 86.8415 79.7826 87.5 78.125 87.5H62.5C60.8424 87.5 59.2527 86.8415 58.0806 85.6694C56.9085 84.4973 56.25 82.9076 56.25 81.25V18.75C56.25 17.0924 56.9085 15.5027 58.0806 14.3306C59.2527 13.1585 60.8424 12.5 62.5 12.5H78.125C79.7826 12.5 81.3723 13.1585 82.5444 14.3306C83.7165 15.5027 84.375 17.0924 84.375 18.75ZM37.5 12.5H21.875C20.2174 12.5 18.6277 13.1585 17.4556 14.3306C16.2835 15.5027 15.625 17.0924 15.625 18.75V81.25C15.625 82.9076 16.2835 84.4973 17.4556 85.6694C18.6277 86.8415 20.2174 87.5 21.875 87.5H37.5C39.1576 87.5 40.7473 86.8415 41.9194 85.6694C43.0915 84.4973 43.75 82.9076 43.75 81.25V18.75C43.75 17.0924 43.0915 15.5027 41.9194 14.3306C40.7473 13.1585 39.1576 12.5 37.5 12.5Z" fill="black"/>
</svg>
