<svg width="101" height="100" viewBox="0 0 101 100" fill="none" xmlns="http://www.w3.org/2000/svg">
    <path
        d="M94.25 50C94.2526 51.061 93.9805 52.1047 93.4603 53.0295C92.9401 53.9542 92.1894 54.7286 91.2812 55.2773L35 89.707C34.0511 90.2881 32.9643 90.6053 31.8519 90.6259C30.7394 90.6465 29.6416 90.3697 28.6719 89.8242C27.7114 89.2872 26.9112 88.504 26.3538 87.5552C25.7963 86.6064 25.5016 85.5262 25.5 84.4258V15.5742C25.5016 14.4738 25.7963 13.3936 26.3538 12.4448C26.9112 11.496 27.7114 10.7128 28.6719 10.1758C29.6416 9.63027 30.7394 9.35352 31.8519 9.37412C32.9643 9.39472 34.0511 9.71193 35 10.293L91.2812 44.7227C92.1894 45.2714 92.9401 46.0458 93.4603 46.9705C93.9805 47.8953 94.2526 48.939 94.25 50Z"
        fill="black" />
</svg>