<svg width="41" height="41" viewBox="0 0 41 41" fill="none" xmlns="http://www.w3.org/2000/svg">
<g clip-path="url(#clip0_3_44)">
<path d="M0.202454 17.5017C0.202454 18.8845 1.31964 20.0017 2.70245 20.0017C4.08527 20.0017 5.20245 18.8845 5.20245 17.5017C5.20245 13.3611 8.56183 10.0017 12.7025 10.0017H25.2025V12.5017C25.2025 13.5095 25.8118 14.4236 26.7493 14.8142C27.6868 15.2048 28.7571 14.9861 29.4759 14.2751L34.4759 9.27515C35.4525 8.29858 35.4525 6.71265 34.4759 5.73608L29.4759 0.736084C28.7571 0.0173335 27.6868 -0.193604 26.7493 0.197021C25.8118 0.587646 25.2025 1.4939 25.2025 2.50171V5.00171H12.7025C5.7962 5.00171 0.202454 10.5955 0.202454 17.5017ZM40.2025 22.5017C40.2025 21.1189 39.0853 20.0017 37.7025 20.0017C36.3196 20.0017 35.2025 21.1189 35.2025 22.5017C35.2025 26.6423 31.8431 30.0017 27.7025 30.0017H15.2025V27.5017C15.2025 26.4939 14.5931 25.5798 13.6556 25.1892C12.7181 24.7986 11.6478 25.0173 10.929 25.7283L5.92902 30.7283C4.95245 31.7048 4.95245 33.2908 5.92902 34.2673L10.929 39.2673C11.6478 39.9861 12.7181 40.197 13.6556 39.8064C14.5931 39.4158 15.2025 38.5095 15.2025 37.4939V35.0017H27.7025C34.6087 35.0017 40.2025 29.408 40.2025 22.5017Z" fill="black"/>
</g>
<defs>
<clipPath id="clip0_3_44">
<rect width="40" height="40" fill="white" transform="translate(0.202454 0.00170898)"/>
</clipPath>
</defs>
</svg>
