<svg width="101" height="100" viewBox="0 0 101 100" fill="none" xmlns="http://www.w3.org/2000/svg">
<path d="M50.5 20.8333V9.20833C50.5 7.33333 48.25 6.41667 46.9583 7.75L31.125 23.5417C30.2917 24.375 30.2917 25.6667 31.125 26.5L46.9167 42.2917C48.25 43.5833 50.5 42.6667 50.5 40.7917V29.1667C66.0417 29.1667 78.3333 43.4167 74.9167 59.5417C72.9583 69 65.2917 76.625 55.875 78.5833C41 81.7083 27.75 71.5 25.75 57.7083C25.6015 56.729 25.1089 55.8346 24.3606 55.1855C23.6123 54.5365 22.6572 54.1753 21.6667 54.1667C19.1667 54.1667 17.1667 56.375 17.5 58.875C20.0833 77.1667 37.5 90.7083 57.2083 86.875C70.2083 84.3333 80.6667 73.875 83.2083 60.875C87.3333 39.5 71.0833 20.8333 50.5 20.8333Z" fill="black"/>
</svg>
