<svg width="40" height="40" viewBox="0 0 40 40" fill="none" xmlns="http://www.w3.org/2000/svg">
<path d="M15.4167 36.6666L14.75 31.3333C14.3889 31.1944 14.0483 31.0278 13.7283 30.8333C13.4083 30.6389 13.0961 30.4305 12.7917 30.2083L7.83333 32.2916L3.25 24.375L7.54167 21.125C7.51389 20.9305 7.5 20.7428 7.5 20.5616V19.4383C7.5 19.2572 7.51389 19.0694 7.54167 18.875L3.25 15.625L7.83333 7.70831L12.7917 9.79165C13.0972 9.56942 13.4167 9.36109 13.75 9.16665C14.0833 8.9722 14.4167 8.80553 14.75 8.66665L15.4167 3.33331H24.5833L25.25 8.66665C25.6111 8.80553 25.9517 8.9722 26.2717 9.16665C26.5917 9.36109 26.9039 9.56942 27.2083 9.79165L32.1667 7.70831L36.75 15.625L32.4583 18.875C32.4861 19.0694 32.5 19.2572 32.5 19.4383V20.5616C32.5 20.7428 32.4722 20.9305 32.4167 21.125L36.7083 24.375L32.125 32.2916L27.2083 30.2083C26.9028 30.4305 26.5833 30.6389 26.25 30.8333C25.9167 31.0278 25.5833 31.1944 25.25 31.3333L24.5833 36.6666H15.4167ZM20.0833 25.8333C21.6944 25.8333 23.0694 25.2639 24.2083 24.125C25.3472 22.9861 25.9167 21.6111 25.9167 20C25.9167 18.3889 25.3472 17.0139 24.2083 15.875C23.0694 14.7361 21.6944 14.1666 20.0833 14.1666C18.4444 14.1666 17.0622 14.7361 15.9367 15.875C14.8111 17.0139 14.2489 18.3889 14.25 20C14.25 21.6111 14.8122 22.9861 15.9367 24.125C17.0611 25.2639 18.4433 25.8333 20.0833 25.8333Z" fill="black"/>
</svg>
