<svg width="62" height="41" viewBox="0 0 62 41" fill="none" xmlns="http://www.w3.org/2000/svg">
<path d="M28.0589 0.00170935C31.9838 0.00189692 35.8111 1.22447 39.0093 3.49958C42.2075 5.77469 44.6177 8.98939 45.9051 12.6971L46.1358 13.414L46.2712 13.8571H53.4405C55.5949 13.857 57.6681 14.6791 59.2371 16.1554C60.8061 17.6318 61.7526 19.6513 61.8835 21.8017L61.8989 22.3156V25.3925C61.8981 26.7433 61.3896 28.0445 60.4742 29.0379C59.5589 30.0313 58.3036 30.6444 56.9574 30.7556L56.5174 30.7709H51.5143L52.2558 32.5679C52.7685 33.813 52.796 35.2051 52.3329 36.4695C51.8699 37.734 50.9499 38.779 49.7543 39.3986L49.3328 39.5956C48.8455 39.7968 48.3313 39.9254 47.8066 39.9771L47.2804 40.0017H41.782C40.8421 40.0012 39.9187 39.7547 39.1036 39.2867C38.2885 38.8187 37.6101 38.1455 37.1358 37.334L36.9143 36.9125L35.2558 33.3956L35.422 33.374C31.1143 33.9463 26.7543 34.014 22.4343 33.5771L20.9051 33.4017L19.2589 36.8971C18.824 37.8215 18.1351 38.6031 17.2726 39.1507C16.4102 39.6982 15.4097 39.9891 14.3881 39.9894H8.83737C7.9531 39.9898 7.08237 39.7723 6.30216 39.3561C5.52196 38.9399 4.85633 38.3379 4.36415 37.6033C3.87196 36.8686 3.56838 36.024 3.48026 35.1442C3.39214 34.2643 3.52219 33.3763 3.85891 32.5586L5.19122 29.3279C3.71638 28.4401 2.49639 27.1857 1.64988 25.6868C0.803376 24.1879 0.359164 22.4954 0.360446 20.774C0.361212 20.2169 0.563502 19.6789 0.92997 19.2592C1.29644 18.8396 1.80234 18.5667 2.35429 18.4909L2.66814 18.4694H8.45275L9.98199 13.414C11.1564 9.53424 13.5481 6.13537 16.8036 3.71998C20.059 1.30459 24.0053 0.000914414 28.0589 0.00170935ZM48.9112 29.8263C46.5389 30.7802 44.1143 31.5648 41.662 32.1802L39.9728 32.5771L41.0866 34.9463C41.1611 35.106 41.2882 35.2353 41.4466 35.3125L41.6097 35.3679L41.782 35.3894H47.2804C47.3892 35.3893 47.4967 35.3662 47.5959 35.3215C47.695 35.2768 47.7836 35.2116 47.8557 35.1302C47.9278 35.0488 47.9818 34.953 48.0142 34.8492C48.0466 34.7454 48.0566 34.6358 48.0435 34.5279L47.9912 34.3279L46.5205 30.7709H46.3881L47.6528 30.3156L48.9112 29.8263ZM7.21275 29.8263L8.41275 30.294L9.6066 30.7279L8.12352 34.3156C8.07545 34.4326 8.05698 34.5596 8.06975 34.6855C8.08252 34.8114 8.12613 34.9321 8.19672 35.0371C8.26732 35.1421 8.36272 35.228 8.47446 35.2873C8.58621 35.3466 8.71086 35.3775 8.83737 35.3771H14.3881L14.5635 35.3556C14.6769 35.3294 14.7829 35.2779 14.8735 35.2049C14.9641 35.1319 15.037 35.0393 15.0866 34.934L16.1912 32.5863L16.3266 32.6171C13.2148 31.949 10.1658 31.0164 7.21275 29.8294V29.8263ZM6.59122 24.614L7.05583 23.0756L5.49583 23.0817L5.57275 23.2417C5.83737 23.7525 6.18506 24.214 6.59122 24.614ZM47.6681 18.4694L49.9943 26.1556L56.5174 26.1586C56.6903 26.1585 56.8581 26.1002 56.9937 25.993C57.1294 25.8858 57.225 25.736 57.2651 25.5679L57.2866 25.3894V22.3156C57.2863 21.3639 56.9332 20.4462 56.2955 19.7397C55.6578 19.0333 54.7809 18.5884 53.8343 18.4909L53.4405 18.4725H47.6681V18.4694Z" fill="black"/>
</svg>
