<svg width="61" height="41" viewBox="0 0 61 41" fill="none" xmlns="http://www.w3.org/2000/svg">
<path d="M27.3664 0.00170935C31.1932 0.00189692 34.9248 1.22447 38.0431 3.49958C41.1613 5.77469 43.5112 8.98939 44.7664 12.6971L44.9914 13.414L45.1234 13.8571H52.1134C54.214 13.857 56.2354 14.6791 57.7652 16.1554C59.295 17.6318 60.2178 19.6513 60.3454 21.8017L60.3604 22.3156V25.3925C60.3596 26.7433 59.8638 28.0445 58.9714 29.0379C58.0789 30.0313 56.855 30.6444 55.5424 30.7556L55.1134 30.7709H50.2354L50.9584 32.5679C51.4583 33.813 51.4851 35.2051 51.0336 36.4695C50.5821 37.734 49.6851 38.779 48.5194 39.3986L48.1084 39.5956C47.6333 39.7968 47.132 39.9254 46.6204 39.9771L46.1074 40.0017H40.7464C39.83 40.0012 38.9297 39.7547 38.135 39.2867C37.3403 38.8187 36.6788 38.1455 36.2164 37.334L36.0004 36.9125L34.3834 33.3956L34.5454 33.374C30.3454 33.9463 26.0944 34.014 21.8824 33.5771L20.3914 33.4017L18.7864 36.8971C18.3624 37.8215 17.6907 38.6031 16.8498 39.1507C16.0089 39.6982 15.0335 39.9891 14.0374 39.9894H8.62544C7.76329 39.9898 6.91432 39.7723 6.15362 39.3561C5.39292 38.9399 4.74394 38.3379 4.26406 37.6033C3.78417 36.8686 3.48819 36.024 3.40227 35.1442C3.31635 34.2643 3.44314 33.3763 3.77145 32.5586L5.07045 29.3279C3.63248 28.4401 2.44299 27.1857 1.61765 25.6868C0.792303 24.1879 0.359196 22.4954 0.360446 20.774C0.361193 20.2169 0.558425 19.6789 0.915732 19.2592C1.27304 18.8396 1.7663 18.5667 2.30445 18.4909L2.61045 18.4694H8.25044L9.74145 13.414C10.8865 9.53424 13.2184 6.13537 16.3925 3.71998C19.5665 1.30459 23.4142 0.000914414 27.3664 0.00170935ZM47.6974 29.8263C45.3844 30.7802 43.0204 31.5648 40.6294 32.1802L38.9824 32.5771L40.0684 34.9463C40.1411 35.106 40.265 35.2353 40.4194 35.3125L40.5784 35.3679L40.7464 35.3894H46.1074C46.2135 35.3893 46.3183 35.3662 46.415 35.3215C46.5117 35.2768 46.598 35.2116 46.6683 35.1302C46.7386 35.0488 46.7913 34.953 46.8229 34.8492C46.8544 34.7454 46.8642 34.6358 46.8514 34.5279L46.8004 34.3279L45.3664 30.7709H45.2374L46.4704 30.3156L47.6974 29.8263ZM7.04145 29.8263L8.21144 30.294L9.37544 30.7279L7.92945 34.3156C7.88257 34.4326 7.86456 34.5596 7.87701 34.6855C7.88946 34.8114 7.93199 34.9321 8.00082 35.0371C8.06965 35.1421 8.16266 35.228 8.27161 35.2873C8.38057 35.3467 8.5021 35.3775 8.62544 35.3771H14.0374L14.2084 35.3556C14.319 35.3294 14.4223 35.2779 14.5107 35.2049C14.599 35.1319 14.6701 35.0393 14.7184 34.934L15.7954 32.5863L15.9274 32.6171C12.8935 31.949 9.92067 31.0164 7.04145 29.8294V29.8263ZM6.43545 24.614L6.88845 23.0756L5.36745 23.0817L5.44245 23.2417C5.70045 23.7525 6.03945 24.214 6.43545 24.614ZM46.4854 18.4694L48.7534 26.1556L55.1134 26.1586C55.282 26.1585 55.4456 26.1002 55.5779 25.993C55.7101 25.8858 55.8033 25.736 55.8424 25.5679L55.8634 25.3894V22.3156C55.8631 21.3639 55.5188 20.4462 54.8971 19.7397C54.2754 19.0333 53.4204 18.5884 52.4974 18.4909L52.1134 18.4725H46.4854V18.4694Z" fill="black"/>
</svg>
